#!OML:ASF H:\Terrain\Patient Classification 1\Walking\steve\steve.ASF
:FULLY-SPECIFIED
:DEGREES
62
root 9.56145 15.7836 -17.9921 5.63464 -8.37398 5.76099
lowerback 2.25764 2.31277 -7.43746
upperback -2.66039 2.70976 -1.7287
thorax -4.30081 1.54389 2.19644
lowerneck -10.4487 -0.769103 -2.01244
upperneck 15.3339 -1.2738 3.40007
head 6.41397 -0.456763 1.30777
rclavicle -2.00074e-014 -1.15792e-014
rhumerus -61.9718 -30.4187 -47.5821
rradius 15.0923
rwrist 34.2848
rhand -20.558 -36.6438
rfingers 7.12502
rthumb 5.8011 -66.5443
lclavicle -2.00074e-014 -1.15792e-014
lhumerus -25.4352 -0.679453 85.9209
lradius 29.6839
lwrist 12.1661
lhand -23.54 -14.2757
lfingers 7.12502
lthumb 2.92163 15.6841
rfemur -36.6552 2.99354 17.8231
rtibia 57.965
rfoot -19.1387 3.48975
rtoes -17.3461
lfemur -9.71425 3.96534 -30.3462
ltibia 28.9223
lfoot -20.55 -1.20003
ltoes -10.4553
63
root 9.56721 15.7888 -17.7182 5.60036 -8.03182 6.14208
lowerback 2.3814 2.11927 -7.72889
upperback -2.70363 2.42299 -1.76364
thorax -4.4024 1.41382 2.33561
lowerneck -10.488 -0.689845 -1.96577
upperneck 15.2683 -1.17995 3.44944
head 6.39722 -0.404788 1.32354
rclavicle -1.46247e-014 1.799e-014
rhumerus -66.5965 -33.7623 -38.9506
rradius 14.2895
rwrist 41.4938
rhand -20.5286 -36.1203
rfingers 7.12502
rthumb 5.82952 -66.0201
lclavicle -1.46247e-014 1.799e-014
lhumerus -24.0643 -2.42037 86.508
lradius 30.9409
lwrist 13.833
lhand -24.1555 -14.713
lfingers 7.12502
lthumb 2.32718 15.254
rfemur -37.6627 2.99107 17.5371
rtibia 55.3441
rfoot -18.9702 4.02822
rtoes -15.2895
lfemur -7.92872 4.1465 -30.6913
ltibia 27.5564
lfoot -20.1843 -2.4952
ltoes -6.65502
64
root 9.57337 15.82 -17.4366 5.75612 -7.47061 6.4014
lowerback 2.15299 1.80674 -7.85231
upperback -2.75772 2.02203 -1.72736
thorax -4.29564 1.21768 2.47662
lowerneck -9.99789 -0.661984 -2.35031
upperneck 15.0254 -1.11666 3.6854
head 6.23606 -0.383308 1.46672
rclavicle -7.43676e-015 -2.31087e-014
rhumerus -70.9292 -35.8403 -31.0347
rradius 13.5541
rwrist 47.387
rhand -21.1824 -35.8505
rfingers 7.12502
rthumb 5.19823 -65.7667
lclavicle -7.43676e-015 -2.31087e-014
lhumerus -22.8065 -4.21011 87.0111
lradius 32.4795
lwrist 15.4173
lhand -24.5386 -14.7458
lfingers 7.12502
lthumb 1.95723 15.2249
rfemur -38.5544 2.69155 17.3256
rtibia 52.4827
rfoot -18.4861 4.71437
rtoes -12.5235
lfemur -6.28229 4.11241 -30.8424
ltibia 26.1347
lfoot -19.2228 -3.98719
ltoes -1.22852
65
root 9.57619 15.8501 -17.1484 5.87156 -6.99986 6.3557
lowerback 1.94463 1.54634 -7.76241
upperback -2.86423 1.69918 -1.57006
thorax -4.25693 1.05926 2.61545
lowerneck -9.51481 -0.644624 -2.5688
upperneck 14.7895 -1.06106 3.69217
head 6.07699 -0.373958 1.50832
rclavicle -2.33021e-014 1.75924e-014
rhumerus -74.9711 -36.8754 -23.7779
rradius 12.9764
rwrist 52.1897
rhand -21.8839 -35.8732
rfingers 7.12502
rthumb 4.52088 -65.805
lclavicle -2.33021e-014 1.75924e-014
lhumerus -22.0246 -5.89082 87.452
lradius 34.3477
lwrist 16.7945
lhand -24.6699 -14.8002
lfingers 7.12502
lthumb 1.8304 15.1717
rfemur -39.2172 2.67085 17.4107
rtibia 49.4189
rfoot -17.5952 5.31871
rtoes -11.0937
lfemur -4.55743 4.03664 -30.6611
ltibia 24.596
lfoot -18.2312 -4.67511
ltoes 0.339288
66
root 9.57334 15.8513 -16.8669 5.90884 -6.67997 6.49527
lowerback 1.87364 1.3764 -8.01897
upperback -2.84965 1.47423 -1.46558
thorax -4.18959 0.954891 2.88294
lowerneck -9.76658 -0.610102 -2.32111
upperneck 14.7726 -1.00979 3.44721
head 6.11145 -0.352017 1.39353
rclavicle -4.83451e-015 2.54941e-014
rhumerus -78.5021 -37.5017 -17.6014
rradius 12.7838
rwrist 55.7056
rhand -22.2399 -36.1653
rfingers 7.12502
rthumb 4.17707 -66.1041
lclavicle -4.83451e-015 2.54941e-014
lhumerus -21.0064 -7.5773 87.7586
lradius 36.103
lwrist 18.006
lhand -25.5557 -15.0178
lfingers 7.12502
lthumb 0.97486 14.9597
rfemur -39.9004 3.2883 17.1361
rtibia 46.2645
rfoot -16.635 5.97194
rtoes -7.43062
lfemur -2.74183 4.0378 -30.7226
ltibia 23.024
lfoot -17.72 -4.81209
ltoes -1.94899
67
root 9.56953 15.8533 -16.5877 6.04258 -6.29887 6.61884
lowerback 1.75086 1.17289 -8.23769
upperback -2.82715 1.21011 -1.41818
thorax -4.07452 0.826741 3.07298
lowerneck -9.93469 -0.525097 -2.00903
upperneck 14.7149 -0.924208 3.34199
head 6.11811 -0.300207 1.3152
rclavicle -2.65114e-014 6.36111e-015
rhumerus -81.2321 -37.6847 -13.038
rradius 12.8783
rwrist 57.5626
rhand -22.5756 -36.3106
rfingers 7.12502
rthumb 3.85294 -66.2555
lclavicle -2.65114e-014 6.36111e-015
lhumerus -19.6806 -9.12142 87.7443
lradius 37.6683
lwrist 18.9388
lhand -26.5732 -15.0721
lfingers 7.12502
lthumb -0.0079033 14.9076
rfemur -40.6447 3.7779 16.8474
rtibia 43.1181
rfoot -15.9287 6.04739
rtoes -6.91289
lfemur -0.91249 3.91791 -30.7561
ltibia 21.3492
lfoot -17.0022 -5.11101
ltoes -2.70057
